<svg xmlns="http://www.w3.org/2000/svg" width="200" height="200" viewBox="0 0 200 200">
  <g transform="scale(0.28) translate(-190, -150)">
    <path 
      d="M 540.32 846.39 C525.92,852.77 513.55,857.98 512.82,857.96 C510.91,857.89 492.60,850.30 477.50,843.31 C470.35,840.00 460.23,835.33 455.00,832.93 C443.27,827.54 403.17,807.51 393.00,801.97 C388.88,799.72 382.12,796.04 378.00,793.78 C346.83,776.77 311.44,752.58 287.61,731.99 C278.27,723.92 262.21,707.91 257.50,701.97 C256.40,700.58 253.89,697.43 251.92,694.97 C230.11,667.72 214.62,629.07 211.07,593.00 C210.42,586.42 209.90,522.40 209.69,421.66 L 209.34 260.82 L 211.74 259.91 C213.05,259.41 223.21,256.31 234.32,253.02 C245.42,249.73 258.77,245.69 264.00,244.03 C269.23,242.37 280.48,239.01 289.00,236.56 C297.52,234.11 306.52,231.45 309.00,230.65 C316.11,228.36 355.61,216.37 377.00,210.02 C387.73,206.83 404.83,201.66 415.00,198.52 C425.17,195.39 438.67,191.31 445.00,189.47 C451.33,187.63 458.75,185.38 461.50,184.49 C464.25,183.59 467.85,182.49 469.50,182.03 C471.15,181.57 481.47,178.45 492.44,175.08 L 512.38 168.96 L 528.94 173.91 C538.05,176.63 553.83,181.40 564.00,184.51 C617.36,200.82 632.51,205.41 643.00,208.45 C656.14,212.25 663.16,214.39 671.00,217.01 C674.03,218.01 682.80,220.71 690.50,222.99 C698.20,225.28 707.88,228.20 712.00,229.49 C716.12,230.78 724.45,233.27 730.50,235.02 C736.55,236.78 749.38,240.60 759.00,243.52 C768.62,246.43 783.70,250.91 792.50,253.47 C801.30,256.02 809.96,258.57 811.75,259.14 L 815.00 260.16 L 815.00 420.33 C815.00,591.99 814.99,592.21 809.94,615.56 C804.85,639.03 795.45,661.29 781.84,682.05 C772.68,696.02 765.23,704.90 749.56,720.52 C709.61,760.34 640.30,802.03 540.32,846.39 Z" 
      fill="white" 
      stroke="white" 
      stroke-width="8" />
  </g>
</svg>